<svg width="21" height="20" viewBox="0 0 21 20" fill="none" xmlns="http://www.w3.org/2000/svg">
<path d="M10.1475 1.86855C9.05319 1.86855 7.96956 2.08409 6.95851 2.50288C5.94747 2.92167 5.02881 3.5355 4.25499 4.30932C2.69218 5.87213 1.81421 7.99174 1.81421 10.2019C1.81421 13.8852 4.20588 17.0102 7.51421 18.1185C7.93088 18.1852 8.06421 17.9269 8.06421 17.7019C8.06421 17.5102 8.06421 16.9852 8.06421 16.2935C5.75588 16.7935 5.26421 15.1769 5.26421 15.1769C4.88088 14.2102 4.33921 13.9519 4.33921 13.9519C3.58088 13.4352 4.39754 13.4519 4.39754 13.4519C5.23088 13.5102 5.67254 14.3102 5.67254 14.3102C6.39754 15.5769 7.62254 15.2019 8.09754 15.0019C8.17254 14.4602 8.38921 14.0935 8.62254 13.8852C6.77254 13.6769 4.83088 12.9602 4.83088 9.78521C4.83088 8.86021 5.14754 8.11855 5.68921 7.52688C5.60588 7.31855 5.31421 6.45188 5.77254 5.32688C5.77254 5.32688 6.47254 5.10188 8.06421 6.17688C8.72254 5.99355 9.43921 5.90188 10.1475 5.90188C10.8559 5.90188 11.5725 5.99355 12.2309 6.17688C13.8225 5.10188 14.5225 5.32688 14.5225 5.32688C14.9809 6.45188 14.6892 7.31855 14.6059 7.52688C15.1475 8.11855 15.4642 8.86021 15.4642 9.78521C15.4642 12.9685 13.5142 13.6685 11.6559 13.8769C11.9559 14.1352 12.2309 14.6435 12.2309 15.4185C12.2309 16.5352 12.2309 17.4352 12.2309 17.7019C12.2309 17.9269 12.3642 18.1935 12.7892 18.1185C16.0975 17.0019 18.4809 13.8852 18.4809 10.2019C18.4809 9.10753 18.2653 8.0239 17.8465 7.01285C17.4278 6.0018 16.8139 5.08314 16.0401 4.30932C15.2663 3.5355 14.3476 2.92167 13.3366 2.50288C12.3255 2.08409 11.2419 1.86855 10.1475 1.86855Z" fill="white"/>
</svg>
