<svg width="21" height="20" viewBox="0 0 21 20" fill="none" xmlns="http://www.w3.org/2000/svg">
<path d="M12.6475 3.33334V9.16667H4.45588L3.48088 10.1417V3.33334H12.6475ZM13.4809 1.66667H2.64754C2.42653 1.66667 2.21457 1.75447 2.05829 1.91075C1.90201 2.06703 1.81421 2.27899 1.81421 2.50001V14.1667L5.14754 10.8333H13.4809C13.7019 10.8333 13.9139 10.7455 14.0701 10.5893C14.2264 10.433 14.3142 10.221 14.3142 10V2.50001C14.3142 2.27899 14.2264 2.06703 14.0701 1.91075C13.9139 1.75447 13.7019 1.66667 13.4809 1.66667ZM17.6475 5.00001H15.9809V12.5H5.14754V14.1667C5.14754 14.3877 5.23534 14.5996 5.39162 14.7559C5.5479 14.9122 5.75986 15 5.98088 15H15.1475L18.4809 18.3333V5.83334C18.4809 5.61232 18.3931 5.40036 18.2368 5.24408C18.0805 5.0878 17.8686 5.00001 17.6475 5.00001Z" fill="white"/>
</svg>
