<svg version="1" xmlns="http://www.w3.org/2000/svg" width="684" height="684" viewBox="0 0 513.000000 513.000000"><path d="M236.8 5.5c-.2.1-3.7.5-7.8.9s-8.2.8-9 1c-.8.1-3.7.6-6.5 1-2.7.4-6.6 1.2-8.5 1.6-1.9.5-4.6 1.1-6 1.4-1.4.3-5.6 1.4-9.5 2.6-3.8 1.1-8 2.3-9.2 2.5-3.8.9-20.5 7.5-29.1 11.6-4.6 2.1-8.8 3.9-9.3 3.9s-.9.5-.9 1.2c0 .6-.3.8-.6.5-.4-.4-1.9.1-3.3 1.1-5.3 3.5-6.7 4.3-9.7 5.7-1.7.7-3.6 2.1-4.4 2.9-.7.9-1.6 1.6-2.1 1.6-.8 0-10.3 6.4-14.4 9.7-.5.5-3 2.4-5.5 4.3-16.1 12.5-36.1 33.4-47.4 49.5-3.1 4.4-6 8.4-6.4 9-4.3 5.4-20.2 35.2-20.2 37.8 0 .7-.5 1.8-1.2 2.5-.6.6-1.3 1.7-1.4 2.4-.2.7-1.5 4.4-3 8.3-1.4 3.8-3.9 11.3-5.5 16.5-2.6 8.7-3.4 11.8-4.4 17.5-.2 1.1-.6 3.1-1 4.5-.7 3.3-1.3 6.5-2 12-.3 2.5-.8 5.6-1 7-2.2 14.4-2.2 46.7 0 60 .4 2.6 1.5 9.9 2 13.5.1 1.1.5 3.3.9 5 .3 1.6.8 3.9 1 5 2 10.2 7.9 29.6 12.3 40 4 9.7 17.6 36.5 18.5 36.5.4 0 .8.5.8 1.1 0 1.4 12.1 19.2 16.5 24.3.6.6 3.2 3.8 5.9 7.1 6 7.2 23.2 24.4 30.1 30.1 9.5 7.7 18.4 14.4 19.4 14.4.5 0 1.1.3 1.3.7.4 1 6.5 5.3 7.4 5.3.3 0 1.8.8 3.2 1.9 2.6 1.7 10.7 6.3 18.2 10.1 6.2 3.3 16.4 7.7 20.5 9 2.2.7 4.5 1.6 5 2 .8.5 11.2 4 13.5 4.5.3.1 2.5.7 5 1.4s5.2 1.5 6 1.7c.8.2 3.5.8 6 1.5 5.4 1.3 6.2 1.5 12 2.4 2.5.4 5.4.9 6.5 1.1 2.3.4 7.3 1 17 2 12.3 1.2 41.5.6 50.1-1 1.1-.2 4.6-.7 7.9-1.1 10-1.2 10.4-1.3 11.2-1.8.5-.3 2.8-.8 5.3-1.2 2.5-.4 4.8-.9 5.3-1.2.4-.3 1.8-.6 3-.8 8.9-1.3 33.5-10.5 48.8-18.2 5.9-2.9 11.2-5.3 11.8-5.3.6 0 1.1-.3 1.1-.8 0-.4 2.4-2 5.2-3.6 4.9-2.8 11-6.6 13.3-8.3.6-.5 2.8-2.1 5-3.7 11.2-8.2 22.1-17.7 31.5-27.4 10.2-10.5 12-12.5 18.7-20.8 8.5-10.5 20-28.7 26.8-42.4 2.6-5.2 5.1-10.3 5.6-11.2 1.2-2.3 9-22.9 9.5-24.8.1-.8 1.6-6.4 3.3-12.3 8.2-29.7 9.7-57.2 3.9-69.7-2-4.3-2.1-6.2-2.3-43.5l-.1-39-23.5-.2c-12.9-.1-25.6-.2-28.4-.2-2.7-.1-8.7 0-13.3 0-4.5.1-8.5-.1-8.8-.4-.3-.3-.6-17.1-.7-37.3l-.2-36.9-37-.1c-20.3-.1-37.2-.2-37.5-.3-.3 0-.4-2-.3-4.3.4-8.3.4-9.3.2-14-.1-2.7 0-5 .2-5.2.3-.3.2-3.5-.1-7.1-.3-3.7-.3-6.8.1-7.1.4-.2.3-1.9-.1-3.8s-.6-3.7-.3-4c.3-.2.4-2.5.3-5 0-2.5-.1-5.4-.1-6.4V29v-7.8l.1-2.2-27.3-.1H286l-11.5.1-2-3c-2.3-3.5-9.8-7.5-17-9-4.9-1-18-2.1-18.7-1.5z"/></svg>