<svg width="512" height="512" viewBox="0 0 512 512" fill="none" xmlns="http://www.w3.org/2000/svg">
<path d="M500.8 245.6V168.2H426.2V93.7H351.4V19L290 18.8L274 19C274 19 269.7 2.7 230.4 6C103.9 19 5.19995 126 5.19995 256C5.19995 394.8 117.7 507.4 256.6 507.4C386.4 507.4 493.3 409 506.6 282.7C508.8 254.7 500.8 245.6 500.8 245.6Z" fill="white"/>
<path d="M260.3 348.8C231.9 348.8 197.6 345.5 172.4 342.2C168.7 314.6 167.8 284.6 167.8 253C167.8 125.8 200.9 20.9 243 11.1C115.3 18.1 13.9 124.8 13.9 255.5C13.9 390.7 122.4 500.3 256.3 500.3C385.6 500.3 491.2 398.1 498.3 269.3C491.7 314.3 385.4 348.8 260.3 348.8Z" fill="#AFB8D1"/>
<path d="M424.3 339.9C423.3 340.2 422.3 340.5 421.3 340.8C394.3 412.3 332.1 466.2 257.9 485.5C258.8 485.5 259.7 485.5 260.6 485.5C316.5 485.5 370.2 465.4 411.7 428.9C447 397.8 471 357.1 480.8 312.4C467.5 322.9 448.5 332.2 424.3 339.9Z" fill="#909CAF"/>
<path d="M268.6 34.1C268 19.8 256.8 16.2 251.4 16C234.6 15.5 214.3 39.2 199.5 84.4C184.5 129.9 168 206.9 179.8 337.5L212.2 306.1C212.2 306.1 212 303.6 211.8 301.1C211.8 301.1 209.3 269.6 208.9 253.5C208 204.7 212.2 159.1 222.6 124.5C233 89.8 252.2 60.3 267.1 60.3C272.3 60.3 272.3 72.7 277.1 77.2L268.6 34.1Z" fill="#626E7F"/>
<path d="M425.3 319.6C453.2 309.8 512.7 283.2 487.4 243.6C485.9 241.2 484 239.1 481.7 237.4H434.3C440.2 243 443.2 248.9 443.2 254.9C443.2 269.8 424.7 283.8 391.1 294.2C357.7 304.6 313.3 310.3 266.1 310.3C248.046 310.3 230.073 308.986 212.195 306.105L179.806 337.491C195.506 339.491 233.1 343.1 264.5 343.1C325 343.1 382.1 334.7 425.3 319.6Z" fill="#AFB8D2"/>
<path d="M268.1 66.4C242.5 66.4 215.1 138.8 215.1 246.6C215.1 263.2 216.6 284.9 217.9 300.8L286.349 233.412L286.1 73.5C281.2 68.3 273.1 66.4 268.1 66.4Z" fill="#BCC9CB"/>
<path d="M267.5 306.3C253.2 306.3 222.912 303.456 217.898 300.779L284.353 235.4L433.9 235.4C437.9 239.8 439.8 246.9 439.6 253C439.183 265.726 424.171 279.089 400.7 287.5C369.38 298.724 320.51 306.3 273.7 306.3C271.7 306.3 269.7 306.3 267.5 306.3Z" fill="#E6ECED"/>
<path d="M341.5 28.7H276.6V93.6H341.5V28.7Z" fill="#F7BF21"/>
<path d="M341.5 103.2H276.6V168.1H341.5V103.2Z" fill="#129A68"/>
<path d="M416.3 103.2H351.4V168.1H416.3V103.2Z" fill="#F26B31"/>
<path d="M491 178.1H426.1V243H491V178.1Z" fill="#1F65B0"/>
<path d="M341.5 178.1H276.6V243H341.5V178.1Z" fill="#EE3128"/>
<path d="M416.3 178.1H351.4V243H416.3V178.1Z" fill="#CF582C"/>
<path d="M500.8 168.2H426.1V93.7H351.3V19H267.2L267.2 251V252.276L500.8 252.5V168.2ZM341.5 242.8H277V178H341.5V242.8ZM341.5 168.3H277V103.1H341.5V168.3ZM341.5 93.5H277V28.6H341.5V93.5ZM416.3 242.8H351.1V178H416.3V242.8ZM416.3 168.3H351.1V103.1H416.3V168.3ZM491 242.8H426.1V178H491V242.8Z" fill="white"/>
</svg>
