<svg width="16" height="18" viewBox="0 0 16 18" fill="none" xmlns="http://www.w3.org/2000/svg">
<g clip-path="url(#clip0)">
<path d="M0.917912 18C1.91268 17.4159 2.85508 16.8584 3.77132 16.3009C6.10116 14.8938 7.7242 13.9381 8.6666 13.4336C9.21634 13.1416 9.89697 12.7434 10.7347 12.2389C11.9127 11.5221 12.5671 11.1239 12.698 11.0708C13.4048 10.7257 14.0593 10.3805 14.6614 10.0354C15.4729 9.55752 15.9179 9.23894 15.9441 9.0531C15.8132 8.92035 15.4991 8.68142 15.0017 8.38938C14.5043 8.0708 14.0069 7.77876 13.5357 7.53982C13.1692 7.35398 12.3315 6.84956 11.0226 6.02655C9.76608 5.25664 9.08545 4.83186 8.98074 4.77876C8.56189 4.56637 7.17446 3.74336 4.76608 2.30974C3.14304 1.32744 1.86032 0.557522 0.944091 5.96007e-07L0.944091 7.0354C3.03833 8.30974 4.16399 9 4.37341 9.1062L0.94409 11.0708L0.94409 18L0.917912 18Z" fill="#DD6F40"/>
</g>
<defs>
<clipPath id="clip0">
<rect width="15" height="18" fill="white" transform="translate(15.918 18) rotate(-180)"/>
</clipPath>
</defs>
</svg>
