<svg width="16" height="19" viewBox="0 0 16 19" fill="none" xmlns="http://www.w3.org/2000/svg">
<g clip-path="url(#clip0)">
<path d="M0.94428 18.0558C1.93904 17.4717 2.88145 16.9142 3.79768 16.3567C6.12753 14.9496 7.75056 13.9938 8.69297 13.4894C9.24271 13.1974 9.92334 12.7991 10.761 12.2947C11.939 11.5779 12.5935 11.1797 12.7244 11.1266C13.4312 10.7815 14.0856 10.4363 14.6877 10.0912C15.4993 9.61331 15.9443 9.29473 15.9705 9.10888C15.8396 8.97614 15.5254 8.7372 15.0281 8.44517C14.5307 8.12658 14.0333 7.83455 13.5621 7.59561C13.1956 7.40977 12.3579 6.90535 11.049 6.08234C9.79245 5.31243 9.11182 4.88765 9.00711 4.83455C8.58826 4.62216 7.20083 3.79915 4.79245 2.36552C3.16941 1.38322 1.88669 0.613309 0.970459 0.0557867L0.970458 7.09119C3.0647 8.36552 4.19035 9.05579 4.39978 9.16198L0.970458 11.1266L0.970457 18.0558L0.94428 18.0558Z" fill="#DD6F40"/>
</g>
<defs>
<clipPath id="clip0">
<rect width="15" height="18" fill="white" transform="translate(15.9443 18.0558) rotate(-180)"/>
</clipPath>
</defs>
</svg>
