<svg width="566" height="179" viewBox="0 0 566 179" fill="none" xmlns="http://www.w3.org/2000/svg">
<path opacity="0.4" d="M25.664 75.4435C20.6773 75.4435 16.0207 74.4902 11.694 72.5835C7.44067 70.6769 3.73734 68.0369 0.584004 64.6635L5.534 59.0535C8.174 61.9135 11.254 64.1869 14.774 65.8735C18.294 67.4869 21.9607 68.2935 25.774 68.2935C30.6873 68.2935 34.5373 67.1569 37.324 64.8835C40.184 62.6102 41.614 59.5669 41.614 55.7535C41.614 53.3335 41.1007 51.3169 40.074 49.7035C39.0473 48.0902 37.7273 46.8069 36.114 45.8535C34.5007 44.9002 32.2273 43.7635 29.294 42.4435L18.844 37.8235C14.5907 35.9902 11.0707 33.6435 8.284 30.7835C5.57067 27.9235 4.214 24.1102 4.214 19.3435C4.214 15.7502 5.16734 12.5235 7.074 9.66353C8.98067 6.80353 11.6207 4.56687 14.994 2.95353C18.4407 1.3402 22.254 0.533532 26.434 0.533532C30.614 0.533532 34.5007 1.3402 38.094 2.95353C41.7607 4.56687 44.8773 6.7302 47.444 9.44354L43.044 14.6135C38.2773 9.99353 32.7407 7.68353 26.434 7.68353C22.1807 7.68353 18.7707 8.7102 16.204 10.7635C13.6373 12.8169 12.354 15.5302 12.354 18.9035C12.354 21.1769 12.9407 23.0835 14.114 24.6235C15.2873 26.1635 16.644 27.3735 18.184 28.2535C19.724 29.1335 21.814 30.1602 24.454 31.3335L34.904 35.9535C39.6707 37.9335 43.3373 40.3902 45.904 43.3235C48.544 46.2569 49.864 50.2169 49.864 55.2035C49.864 59.0169 48.874 62.4635 46.894 65.5435C44.914 68.6235 42.0907 71.0435 38.424 72.8035C34.7573 74.5635 30.504 75.4435 25.664 75.4435ZM64.3041 1.85353H72.4441V67.1935H104.344V74.1235H64.3041V1.85353ZM117.263 1.85353H125.403V74.1235H117.263V1.85353ZM172.355 75.4435C166.342 75.4435 160.952 73.9402 156.185 70.9335C151.492 67.9269 147.788 63.6002 145.075 57.9535C142.435 52.3069 141.115 45.6702 141.115 38.0435C141.115 30.4902 142.472 23.8902 145.185 18.2435C147.898 12.5235 151.675 8.1602 156.515 5.15353C161.355 2.07353 166.818 0.533532 172.905 0.533532C176.938 0.533532 180.642 1.37687 184.015 3.06353C187.388 4.7502 190.212 6.8402 192.485 9.33353L187.975 14.7235C183.795 10.0302 178.808 7.68353 173.015 7.68353C168.322 7.68353 164.215 8.9302 160.695 11.4235C157.175 13.8435 154.425 17.3269 152.445 21.8735C150.538 26.3469 149.585 31.6635 149.585 37.8235C149.585 43.9835 150.502 49.3735 152.335 53.9935C154.242 58.5402 156.918 62.0602 160.365 64.5535C163.885 67.0469 167.992 68.2935 172.685 68.2935C176.058 68.2935 179.102 67.5969 181.815 66.2035C184.602 64.8102 187.278 62.7202 189.845 59.9335L194.355 64.9935C191.422 68.4402 188.158 71.0435 184.565 72.8035C180.972 74.5635 176.902 75.4435 172.355 75.4435ZM208.142 1.85353H249.172V8.78353H216.282V32.6535H244.002V39.4735H216.282V67.1935H250.272V74.1235H208.142V1.85353ZM305.538 74.1235L287.608 42.8835H273.968V74.1235H265.828V1.85353H287.938C304.511 1.85353 312.798 8.52687 312.798 21.8735C312.798 27.3735 311.294 31.8469 308.288 35.2935C305.354 38.7402 301.248 41.0135 295.968 42.1135L314.778 74.1235H305.538ZM273.968 36.2835H286.618C292.484 36.2835 296.958 35.0735 300.038 32.6535C303.118 30.2335 304.658 26.6402 304.658 21.8735C304.658 17.1069 303.154 13.6969 300.148 11.6435C297.141 9.51687 292.631 8.45353 286.618 8.45353H273.968V36.2835ZM32.814 178.444C26.8007 178.444 21.4107 176.94 16.644 173.934C11.9507 170.927 8.24734 166.6 5.534 160.954C2.894 155.307 1.574 148.67 1.574 141.044C1.574 133.49 2.93067 126.89 5.644 121.244C8.35734 115.524 12.134 111.16 16.974 108.154C21.814 105.074 27.2773 103.534 33.364 103.534C37.3973 103.534 41.1007 104.377 44.474 106.064C47.8473 107.75 50.6707 109.84 52.944 112.334L48.434 117.724C44.254 113.03 39.2673 110.684 33.474 110.684C28.7807 110.684 24.674 111.93 21.154 114.424C17.634 116.844 14.884 120.327 12.904 124.874C10.9973 129.347 10.044 134.664 10.044 140.824C10.044 146.984 10.9607 152.374 12.794 156.994C14.7007 161.54 17.3773 165.06 20.824 167.554C24.344 170.047 28.4507 171.294 33.144 171.294C36.5173 171.294 39.5607 170.597 42.274 169.204C45.0607 167.81 47.7373 165.72 50.304 162.934L54.814 167.994C51.8807 171.44 48.6173 174.044 45.024 175.804C41.4307 177.564 37.3607 178.444 32.814 178.444ZM91.8831 178.444C85.8698 178.444 80.5531 176.904 75.9331 173.824C71.3131 170.744 67.6831 166.344 65.0431 160.624C62.4765 154.904 61.1931 148.267 61.1931 140.714C61.1931 133.16 62.4765 126.597 65.0431 121.024C67.6831 115.377 71.3131 111.05 75.9331 108.044C80.5531 105.037 85.8698 103.534 91.8831 103.534C97.8231 103.534 103.103 105.037 107.723 108.044C112.343 111.05 115.936 115.377 118.503 121.024C121.143 126.597 122.463 133.16 122.463 140.714C122.463 148.267 121.143 154.904 118.503 160.624C115.936 166.344 112.343 170.744 107.723 173.824C103.103 176.904 97.8231 178.444 91.8831 178.444ZM91.8831 171.294C96.2831 171.294 100.133 170.047 103.433 167.554C106.806 164.987 109.41 161.43 111.243 156.884C113.076 152.264 113.993 146.874 113.993 140.714C113.993 134.627 113.076 129.347 111.243 124.874C109.41 120.327 106.806 116.844 103.433 114.424C100.133 111.93 96.2831 110.684 91.8831 110.684C87.4098 110.684 83.4865 111.93 80.1131 114.424C76.8131 116.844 74.2465 120.327 72.4131 124.874C70.5798 129.347 69.6631 134.627 69.6631 140.714C69.6631 146.874 70.5798 152.264 72.4131 156.884C74.2465 161.504 76.8498 165.06 80.2231 167.554C83.5965 170.047 87.4831 171.294 91.8831 171.294ZM138.318 104.854H148.328L162.518 144.454L167.798 159.744H168.238C168.751 158.35 169.448 156.26 170.328 153.474C171.501 149.954 172.528 146.947 173.408 144.454L187.378 104.854H197.498V177.124H189.908V135.324C189.908 130.924 190.238 123.957 190.898 114.424H190.458L184.738 130.814L170.658 169.644H164.938L150.748 130.814L145.028 114.424H144.588L144.808 117.174C145.394 124.947 145.688 130.997 145.688 135.324V177.124H138.318V104.854ZM217.595 104.854H227.605L241.795 144.454L247.075 159.744H247.515C248.028 158.35 248.725 156.26 249.605 153.474C250.778 149.954 251.805 146.947 252.685 144.454L266.655 104.854H276.775V177.124H269.185V135.324C269.185 130.924 269.515 123.957 270.175 114.424H269.735L264.015 130.814L249.935 169.644H244.215L230.025 130.814L224.305 114.424H223.865L224.085 117.174C224.672 124.947 224.965 130.997 224.965 135.324V177.124H217.595V104.854ZM322.062 178.444C314.289 178.444 308.092 176.06 303.472 171.294C298.852 166.454 296.542 158.644 296.542 147.864V104.854H304.682V147.864C304.682 156.224 306.259 162.237 309.412 165.904C312.566 169.497 316.782 171.294 322.062 171.294C327.489 171.294 331.816 169.497 335.042 165.904C338.269 162.237 339.882 156.224 339.882 147.864V104.854H347.692V147.864C347.692 158.644 345.346 166.454 340.652 171.294C336.032 176.06 329.836 178.444 322.062 178.444ZM367.556 104.854H375.916L403.196 151.714L411.116 166.564H411.556L411.226 161.724C411.153 160.55 411.006 158.094 410.786 154.354C410.566 150.54 410.456 147.094 410.456 144.014V104.854H418.156V177.124H409.796L382.516 130.264L374.596 115.414H374.156L374.486 120.694C374.999 127.074 375.256 132.684 375.256 137.524V177.124H367.556V104.854ZM438.347 104.854H446.487V177.124H438.347V104.854ZM481.779 111.784H459.559V104.854H512.029V111.784H489.919V177.124H481.779V111.784ZM535.405 148.744L513.735 104.854H522.425L532.105 125.864L533.975 129.934C536.908 136.314 538.705 140.164 539.365 141.484H539.805L541.675 137.634C544.755 131.18 546.588 127.257 547.175 125.864L556.855 104.854H565.325L543.545 148.744V177.124H535.405V148.744Z" fill="url(#paint0_linear)"/>
<defs>
<linearGradient id="paint0_linear" x1="332.354" y1="-17.8765" x2="332.354" y2="188.124" gradientUnits="userSpaceOnUse">
<stop stop-color="#F5F8FD"/>
<stop offset="1" stop-color="#CED5E4"/>
</linearGradient>
</defs>
</svg>
